<svg id="visual" viewBox="0 0 960 540" width="960" height="540" xmlns="http://www.w3.org/2000/svg" xmlns:xlink="http://www.w3.org/1999/xlink" version="1.1"><rect x="0" y="0" width="960" height="540" fill="#FFFFFF"></rect><defs><linearGradient id="grad1_0" x1="43.8%" y1="0%" x2="100%" y2="100%"><stop offset="14.444444444444446%" stop-color="#ffffff" stop-opacity="1"></stop><stop offset="85.55555555555554%" stop-color="#ffffff" stop-opacity="1"></stop></linearGradient></defs><defs><linearGradient id="grad2_0" x1="0%" y1="0%" x2="56.3%" y2="100%"><stop offset="14.444444444444446%" stop-color="#ffffff" stop-opacity="1"></stop><stop offset="85.55555555555554%" stop-color="#ffffff" stop-opacity="1"></stop></linearGradient></defs><g transform="translate(960, 0)"><path d="M0 405C-49.6 390.9 -99.2 376.8 -148.9 359.4C-198.5 342 -248.3 321.2 -286.4 286.4C-324.4 251.6 -350.8 202.8 -368.6 152.7C-386.4 102.6 -395.7 51.3 -405 0L0 0Z" fill="#212429"></path></g><g transform="translate(0, 540)"><path d="M0 -405C57.6 -403.6 115.1 -402.2 155 -374.2C194.9 -346.1 217.1 -291.4 252.4 -252.4C287.8 -213.5 336.4 -190.2 364 -150.8C391.6 -111.3 398.3 -55.7 405 0L0 0Z" fill="#212429"></path></g></svg>